<?xml version="1.0" encoding="UTF-8" standalone="no" ?>
<!DOCTYPE svg PUBLIC "-//W3C//DTD SVG 1.1//EN" "http://www.w3.org/Graphics/SVG/1.1/DTD/svg11.dtd">
<svg xmlns="http://www.w3.org/2000/svg" xmlns:xlink="http://www.w3.org/1999/xlink" version="1.1" width="1080" height="1080" viewBox="0 0 1080 1080" xml:space="preserve">
<desc>Created with Fabric.js 5.2.4</desc>
<defs>
</defs>
<g transform="matrix(1 0 0 1 540 540)" id="8d7c5824-beea-4cdf-823a-c248144c4549"  >
<rect style="stroke: none; stroke-width: 1; stroke-dasharray: none; stroke-linecap: butt; stroke-dashoffset: 0; stroke-linejoin: miter; stroke-miterlimit: 4; fill: rgb(255,255,255); fill-rule: nonzero; opacity: 1; visibility: hidden;" vector-effect="non-scaling-stroke"  x="-540" y="-540" rx="0" ry="0" width="1080" height="1080" />
</g>
<g transform="matrix(1 0 0 1 540 540)" id="8ddffe95-0694-4287-b9bd-97260b83ab0c"  >
</g>
<g transform="matrix(1 0 0 1 446.35 446.94)"  >
<path style="stroke: none; stroke-width: 1; stroke-dasharray: none; stroke-linecap: butt; stroke-dashoffset: 0; stroke-linejoin: miter; stroke-miterlimit: 4; fill: rgb(65,92,75); fill-rule: nonzero; opacity: 1;" vector-effect="non-scaling-stroke"  transform=" translate(-506.74, -356.94)" d="M 492.3909 578.56387 C 471.90307 557.4345599999999 442.21323 545.31675 410.93424 545.31675 L 409.72772 545.31999 C 389.1251013969185 545.3278614437568 368.89007680693885 539.8632743299414 351.0922599999999 529.48514 L 349.24020999999993 528.40602 L 350.73187999999993 526.86902 C 358.80748177835846 518.5139664236161 365.5506309574787 508.9670731811716 370.72504999999995 498.56286 C 363.2851850011628 505.4991527811903 353.14931034721747 508.7735107812688 343.05753999999996 507.50075 C 332.39505634661595 506.22965563165417 322.9007780676304 500.1483963074867 317.28738 490.99449 C 306.35507 473.25662 293.32356999999996 448.08790999999997 293.32356999999996 428.91418999999996 C 293.35797915920017 396.1451935663522 307.17171477518565 364.9013297476983 331.38667 342.82318999999995 C 346.7207732244727 328.99673725427476 355.44760490641886 309.29889681427005 355.38648 288.6518199999999 L 355.38041 287.19897999999995 C 355.3783687092598 273.7583590891035 357.02083851702514 260.3679785675755 360.27121 247.3263 L 360.60126 246.00935999999996 L 361.95626000000004 246.05667999999997 C 370.6940784864645 246.35401513414544 379.43652023066653 245.6216075137872 388.00307000000004 243.87457999999998 C 379.96764201086745 242.88895226423517 372.1068535324785 240.79819710312194 364.64353000000006 237.66157999999996 L 363.18584000000004 237.07187 L 363.68054000000006 235.57817 C 397.78172 214.464 474.7579 225.398 519.43718 123.17462 C 555.666 40.28535 683.49348 196.75549 683.49348 287.199 C 683.49348 296.4277 674.36024 308.62323000000004 681.19733 314.72291 C 755.10712 380.66118 704.11041 423.00263 688.03199 465.60825 C 684.2171999999999 475.71696 692.48881 486.81438 692.48881 497.75074 C 692.48881 499.60643 692.4414899999999 501.52198 692.34805 503.44401 L 692.2056799999999 506.39901 L 689.7412699999999 504.7593 C 684.8662279012838 501.5655906938428 680.3472455122907 497.8589573123817 676.2616299999999 493.70281 C 684.8466320374564 513.4591036826788 684.0170113669368 536.0414274616292 674.0055099999998 555.1145300000001 C 666.2599899999998 569.7335300000001 658.7664399999999 580.1995300000001 651.7335799999998 586.2196 C 604.9644298237816 626.2426324913249 535.1076075273807 622.8863084435089 492.3908999999999 578.56386 Z" stroke-linecap="round" />
</g>
<g transform="matrix(1 0 0 1 533.42 858.67)"  >
<path style="stroke: none; stroke-width: 1; stroke-dasharray: none; stroke-linecap: butt; stroke-dashoffset: 0; stroke-linejoin: miter; stroke-miterlimit: 4; fill: rgb(65,92,75); fill-rule: nonzero; opacity: 1;" vector-effect="non-scaling-stroke"  transform=" translate(-593.81, -768.67)" d="M 587.667 756.93133 L 586.88532 739.35527 Q 586.76345 739.2905900000001 586.64127 739.22648 C 578.2652099999999 734.83135 568.6655099999999 742.7874800000001 571.34087 751.8604 C 573.85809 760.397 575.5493299999999 769.5999800000001 580.157 777.0720200000001 C 585.6716143017354 785.8633208136424 594.8851466258005 791.6694556638876 605.19547 792.85063 L 615.83713 799.36618 C 618.7923009632875 782.8916369780712 614.3854506834482 765.9492025563001 603.7776 753.0024999999999 C 600.8015174406863 749.4427754085564 597.3890043762818 746.271997418469 593.6206 743.5649999999999 C 591.07189 750.28541 587.667 756.93133 587.667 756.93133 Z" stroke-linecap="round" />
</g>
<g transform="matrix(1 0 0 1 505.97 653.24)"  >
<path style="stroke: none; stroke-width: 1; stroke-dasharray: none; stroke-linecap: butt; stroke-dashoffset: 0; stroke-linejoin: miter; stroke-miterlimit: 4; fill: rgb(63,61,86); fill-rule: nonzero; opacity: 1;" vector-effect="non-scaling-stroke"  transform=" translate(-568.96, -584)" d="M 616.13152 798.499 C 617.1727259507654 798.4977488536895 618.0547398513909 797.7314488636086 618.20145 796.70063 C 618.29038 796.07574 627.00194 733.24684 619.1779700000001 649.74463 C 611.9524900000001 572.62831 588.7485700000001 461.55363 519.2386700000001 370.32985 C 518.7857220781707 369.7338579910892 518.0490163144677 369.42506854827354 517.3064793189545 369.5199743166407 C 516.5639423234413 369.6148800850078 515.9285852648267 370.0990367851949 515.6401003542765 370.7897934362378 C 515.3516154437261 371.4805500872806 515.4539089338487 372.2727762823449 515.90839 372.86760000000004 C 584.81793 463.3036000000001 607.8347900000001 573.5632700000001 615.0093300000001 650.1351 C 622.7878200000001 733.1514599999999 614.14457 795.4903999999999 614.0563300000001 796.11052 C 613.9713569711937 796.711506245101 614.1511820836336 797.3198077011244 614.549265861345 797.7779934585943 C 614.9473496390564 798.2361792160641 615.5245663703913 798.499216433072 616.1315300000001 798.49903 Z" stroke-linecap="round" />
</g>
<g transform="matrix(1 0 0 1 396.3 562.95)"  >
<path style="stroke: none; stroke-width: 1; stroke-dasharray: none; stroke-linecap: butt; stroke-dashoffset: 0; stroke-linejoin: miter; stroke-miterlimit: 4; fill: rgb(63,61,86); fill-rule: nonzero; opacity: 1;" vector-effect="non-scaling-stroke"  transform=" translate(-456.69, -472.95)" d="M 559.40732 499.0052 C 560.3144970874783 499.00592435909846 561.118909245631 498.4222677517791 561.3996534197537 497.5596244295202 C 561.6803975938765 496.6969811072613 561.3735796747809 495.7516786583206 560.6397400000001 495.21834 C 560.3874300000001 495.03503 534.95874 476.71272 496.94317000000007 462.79334 C 461.80064000000004 449.92745 408.3611700000001 438.26364 353.34617000000003 455.77298 C 352.63241169645016 455.9988463353781 352.09362248456506 456.5887098126583 351.9331458760205 457.3199510693264 C 351.77266926747586 458.05119232599446 352.014940934217 458.8124657172064 352.568525542336 459.31646035904026 C 353.122110150455 459.8204550008741 353.90271372090643 459.9904279471665 354.61573000000004 459.76223000000005 C 408.50358000000006 442.6127 460.9743500000001 454.08365000000003 495.5035700000001 466.72535000000005 C 532.9765000000001 480.44579000000004 557.9305700000001 498.42535000000004 558.1782900000001 498.60523000000006 C 558.5352631440667 498.8653614266212 558.9656208507698 499.0054151046844 559.40732 499.0052 Z" stroke-linecap="round" />
</g>
<g transform="matrix(1 0 0 1 563.27 451.26)"  >
<path style="stroke: none; stroke-width: 1; stroke-dasharray: none; stroke-linecap: butt; stroke-dashoffset: 0; stroke-linejoin: miter; stroke-miterlimit: 4; fill: rgb(63,61,86); fill-rule: nonzero; opacity: 1;" vector-effect="non-scaling-stroke"  transform=" translate(-623.66, -361.26)" d="M 655.2196 260.37275 C 655.2856445926171 259.4679850587255 654.7614320556396 258.623637830924 653.9212503845418 258.2815029938717 C 653.0810687134442 257.93936815681934 652.1161312166106 258.17731069657424 651.53133 258.87083 C 651.33033 259.10928 631.22433 283.15249 614.60333 320.06692 C 599.2400600000001 354.19167 583.7581 406.6524 597.26007 462.78547 C 597.5304133850423 463.9094550700419 598.6607399299581 464.60146838504215 599.784725 464.33112499999993 C 600.9087100700419 464.06078161495776 601.6007233850422 462.9304550700419 601.33038 461.80647 C 588.10611 406.82347 603.32596 355.31506 618.42146 321.78589 C 634.80488 285.39833 654.53481 261.80389 654.73208 261.56973 C 655.0172585610109 261.2324404047533 655.1879680950753 260.8133070397948 655.2196 260.37275 Z" stroke-linecap="round" />
</g>
<g transform="matrix(1 0 0 1 617.87 458.24)"  >
<path style="stroke: none; stroke-width: 1; stroke-dasharray: none; stroke-linecap: butt; stroke-dashoffset: 0; stroke-linejoin: miter; stroke-miterlimit: 4; fill: rgb(47,46,65); fill-rule: nonzero; opacity: 1;" vector-effect="non-scaling-stroke"  transform=" translate(-678.26, -368.25)" d="M 652.38648 368.31675 C 654.15271 382.56712 664.02707 394.31675 678.38648 394.31675 C 692.7458834956007 394.31675 704.38648 382.67615349560066 704.38648 368.31675 C 704.38648 353.95735 692.68433 343.64434 678.38648 342.31675 C 663.21558 340.90809 650.11884 350.02107 652.38648 368.31675 Z" stroke-linecap="round" />
</g>
<g transform="matrix(1 0 0 1 637.34 857.96)"  >
<polygon style="stroke: none; stroke-width: 1; stroke-dasharray: none; stroke-linecap: butt; stroke-dashoffset: 0; stroke-linejoin: miter; stroke-miterlimit: 4; fill: rgb(255,182,182); fill-rule: nonzero; opacity: 1;" vector-effect="non-scaling-stroke"  points="-7.3,19.1 2.6,19.09 7.31,-19.1 -7.31,-19.09 -7.3,19.1 " />
</g>
<g transform="matrix(1 0 0 1 644.91 879.15)"  >
<path style="stroke: none; stroke-width: 1; stroke-dasharray: none; stroke-linecap: butt; stroke-dashoffset: 0; stroke-linejoin: miter; stroke-miterlimit: 4; fill: rgb(47,46,65); fill-rule: nonzero; opacity: 1;" vector-effect="non-scaling-stroke"  transform=" translate(-705.3, -789.15)" d="M 690.08055 797.37579 L 720.52755 797.37463 L 720.52755 796.98963 C 720.5270750895262 790.4448342069738 715.2215357994846 785.1393755018942 708.67674 785.139 L 708.676 785.139 L 703.1144800000001 780.91977 L 692.7378900000001 785.13968 L 690.0800600000001 785.13974 Z" stroke-linecap="round" />
</g>
<g transform="matrix(1 0 0 1 598.34 857.96)"  >
<polygon style="stroke: none; stroke-width: 1; stroke-dasharray: none; stroke-linecap: butt; stroke-dashoffset: 0; stroke-linejoin: miter; stroke-miterlimit: 4; fill: rgb(255,182,182); fill-rule: nonzero; opacity: 1;" vector-effect="non-scaling-stroke"  points="-7.3,19.1 2.6,19.09 7.31,-19.1 -7.31,-19.09 -7.3,19.1 " />
</g>
<g transform="matrix(1 0 0 1 605.91 879.15)"  >
<path style="stroke: none; stroke-width: 1; stroke-dasharray: none; stroke-linecap: butt; stroke-dashoffset: 0; stroke-linejoin: miter; stroke-miterlimit: 4; fill: rgb(47,46,65); fill-rule: nonzero; opacity: 1;" vector-effect="non-scaling-stroke"  transform=" translate(-666.3, -789.15)" d="M 651.08055 797.37579 L 681.52755 797.37463 L 681.52755 796.98963 C 681.5270750895262 790.4448342069738 676.2215357994846 785.1393755018942 669.67674 785.139 L 669.676 785.139 L 664.1144800000001 780.91977 L 653.7378900000001 785.13968 L 651.0800600000001 785.13974 Z" stroke-linecap="round" />
</g>
<g transform="matrix(1 0 0 1 627.22 747.44)"  >
<path style="stroke: none; stroke-width: 1; stroke-dasharray: none; stroke-linecap: butt; stroke-dashoffset: 0; stroke-linejoin: miter; stroke-miterlimit: 4; fill: rgb(47,46,65); fill-rule: nonzero; opacity: 1;" vector-effect="non-scaling-stroke"  transform=" translate(-687.61, -657.44)" d="M 724.50065 547.85614 L 731.50065 571.85614 L 723.25419 673.501 C 723.25419 673.501 727.50065 679.85611 724.50065 679.85611 C 721.50065 679.85611 717.65379 681.2655299999999 720.0772499999999 685.0608199999999 C 722.5007099999999 688.85611 714.2172499999999 702.4817199999999 714.2172499999999 702.4817199999999 L 702.50064 774.85611 L 687.5715 774.6356499999999 C 687.5715 774.6356499999999 679.98141 770.4073199999999 684.241 766.1316499999999 C 688.50059 761.8559799999999 691.50058 761.8560799999999 687.50058 757.8560799999999 C 683.50058 753.8560799999999 683.50058 755.0607899999999 683.50058 751.9584299999999 C 683.50058 748.8560699999999 679.49307 710.9426899999999 688.99686 696.3994299999999 L 686.13321 637.1041399999999 L 679.38864 695.2655799999999 L 665.50064 772.8560999999999 L 651.11893 772.7376299999999 C 651.11893 772.7376299999999 644.47617 766.3349199999999 644.48843 761.5955399999998 C 644.50069 756.8561599999997 648.59262 756.4624199999998 645.54666 753.6592599999998 C 642.5006999999999 750.8560999999997 642.5006599999999 707.7931099999998 651.5006599999999 683.8560999999997 C 651.5006599999999 683.8560999999997 656.59174 670.4821699999998 651.4891099999999 665.8994399999997 C 646.3864799999998 661.3167099999996 651.4827999999999 656.0729199999997 651.4827999999999 656.0729199999997 C 651.4827999999999 656.0729199999997 659.5645199999999 653.1514699999997 651.4754999999999 644.7340899999997 C 643.3864799999999 636.3167099999997 651.4318099999999 576.7849599999997 651.4318099999999 576.7849599999997 C 651.4318099999999 576.7849599999997 642.5890999999999 552.7542899999997 651.54491 543.3051899999997 C 660.50072 533.8560899999997 724.50065 547.85614 724.50065 547.85614 Z" stroke-linecap="round" />
</g>
<g transform="matrix(1 0 0 1 548.1 674.17)"  >
<path style="stroke: none; stroke-width: 1; stroke-dasharray: none; stroke-linecap: butt; stroke-dashoffset: 0; stroke-linejoin: miter; stroke-miterlimit: 4; fill: rgb(255,182,182); fill-rule: nonzero; opacity: 1;" vector-effect="non-scaling-stroke"  transform=" translate(-608.49, -584.18)" d="M 599.82611 589.20574 L 612.3153599999999 559.0234399999999 L 622.15536 564.49011 L 616.2128299999999 595.19318 C 617.8657050707906 600.5953299648914 615.1313042639983 606.3672346424535 609.9040833711217 608.5099856732297 C 604.6768624782451 610.6527367040061 598.6779184995303 608.460819160099 596.0634578459471 603.4528439471327 C 593.4489971923641 598.4448687341664 595.0798483003532 592.2697447643486 599.82612 589.20574 Z" stroke-linecap="round" />
</g>
<g transform="matrix(1 0 0 1 738.96 443.21)"  >
<path style="stroke: none; stroke-width: 1; stroke-dasharray: none; stroke-linecap: butt; stroke-dashoffset: 0; stroke-linejoin: miter; stroke-miterlimit: 4; fill: rgb(255,182,182); fill-rule: nonzero; opacity: 1;" vector-effect="non-scaling-stroke"  transform=" translate(-799.35, -353.21)" d="M 809.4002 350.535 L 790.39705 377.10251000000005 L 782.05161 369.5485100000001 L 794.79631 340.99041000000005 C 794.4104225208062 335.35424349000436 798.3814984282222 330.351995753754 803.9582808685904 329.44934427738104 C 809.5350633089583 328.54669280100813 814.8813561005913 332.0408421486198 816.293119072116 337.5109616525454 C 817.7048820436407 342.98108115647096 814.7172819681058 348.62609418266914 809.4002 350.535 Z" stroke-linecap="round" />
</g>
<g transform="matrix(1 0 0 1 641.94 558.74)"  >
<path style="stroke: none; stroke-width: 1; stroke-dasharray: none; stroke-linecap: butt; stroke-dashoffset: 0; stroke-linejoin: miter; stroke-miterlimit: 4; fill: rgb(85,222,158); fill-rule: nonzero; opacity: 1;" vector-effect="non-scaling-stroke"  transform=" translate(-702.34, -468.74)" d="M 726.38648 550.31675 C 738.71216 569.4350599999999 676.7551100000001 593.6972999999999 652.982 583.9567499999999 C 648.8192 582.2511499999999 634.49988 576.6175699999999 644.28761 568.8071699999999 C 654.07534 560.99677 643.1528099999999 559.8976499999999 642.89461 554.8132499999999 C 642.72201 551.4140699999999 645.3537799999999 543.95733 642.6078699999999 544.2770499999999 C 639.86196 544.5967699999999 636.64812 539.89595 642.6283699999999 537.8730499999999 C 648.6086199999999 535.8501499999999 642.6924799999999 534.00538 642.7448799999999 532.0851799999999 C 643.3167399999999 511.12979999999993 659.3946699999999 477.7982799999999 659.3946699999999 477.7982799999999 L 630.4236699999999 551.8550999999999 C 630.4236699999999 551.8550999999999 630.63767 564.6673299999999 626.9431799999999 560.7520999999999 C 623.2486899999998 556.83687 623.5175299999999 569.5088499999999 623.5175299999999 569.5088499999999 C 623.5175299999999 569.5088499999999 618.0239899999998 573.3427399999999 621.1830099999999 575.4764499999999 C 624.3420299999999 577.6101599999998 617.7820099999999 584.1701499999999 617.7820099999999 584.1701499999999 L 602.4753499999999 583.0768099999999 C 602.4753499999999 583.0768099999999 602.71499 571.7061299999999 605.3285 569.19148 C 607.94201 566.67683 606.65825 562.7200399999999 606.65825 562.7200399999999 C 606.65825 562.7200399999999 613.46282 556.69656 608.9009299999999 551.8057499999999 C 603.0338099999999 545.5156199999999 624.4250999999999 439.2758199999999 631.8072999999999 440.32790999999986 C 633.9354653948374 429.97092161930084 641.6934410495741 421.683089985659 651.8874699999999 418.87629999999984 L 668.4196799999999 414.3243899999998 L 671.3553199999999 402.6768999999998 L 694.6338399999999 402.6768999999998 L 698.6886399999999 410.3302299999998 L 716.3864699999998 418.31679999999983 C 719.7200899999998 413.6132799999998 722.2112399999997 408.6568899999998 735.8619299999998 407.05022999999983 C 735.8619299999998 407.05022999999983 772.6444799999998 373.5833999999998 770.8486099999998 370.97022999999984 C 769.0527399999997 368.3570599999999 774.7546099999997 362.23913999999985 774.7546099999997 362.23913999999985 C 774.7546099999997 362.23913999999985 779.6241699999997 360.64536999999984 776.8763999999998 359.7944699999999 C 774.1286299999998 358.9435699999999 779.3223999999998 356.97620999999987 779.3223999999998 356.97620999999987 C 779.3223999999998 356.97620999999987 784.1326799999998 355.71220999999986 781.8639699999998 354.0478899999999 C 779.5952599999997 352.3835699999999 789.4352499999998 351.29023999999987 789.4352499999998 351.29023999999987 L 802.2022499999998 361.7070399999999 L 799.6218799999998 366.0824499999999 C 799.6218799999998 366.0824499999999 801.1951799999998 372.0404499999999 799.1418799999998 369.8653399999999 C 797.0885799999998 367.6902299999999 796.7020499999998 374.00243999999986 796.7020499999998 374.00243999999986 C 796.7020499999998 374.00243999999986 795.6534499999998 380.91443999999984 789.4352299999997 382.99689999999987 C 783.2170099999996 385.0793599999999 778.502 404.8635 778.502 404.8635 C 763.8371999999999 423.9308 746.53068 438.805 726.0219999999999 448.59681 C 734.01483 457.77113 726.38648 550.31675 726.38648 550.31675 Z" stroke-linecap="round" />
</g>
<g transform="matrix(1 0 0 1 620.87 462.81)"  >
<circle style="stroke: none; stroke-width: 1; stroke-dasharray: none; stroke-linecap: butt; stroke-dashoffset: 0; stroke-linejoin: miter; stroke-miterlimit: 4; fill: rgb(255,182,182); fill-rule: nonzero; opacity: 1;" vector-effect="non-scaling-stroke"  cx="0" cy="0" r="23.0557" />
</g>
<g transform="matrix(1 0 0 1 621.03 454.1)"  >
<path style="stroke: none; stroke-width: 1; stroke-dasharray: none; stroke-linecap: butt; stroke-dashoffset: 0; stroke-linejoin: miter; stroke-miterlimit: 4; fill: rgb(47,46,65); fill-rule: nonzero; opacity: 1;" vector-effect="non-scaling-stroke"  transform=" translate(-681.42, -364.1)" d="M 657.38648 375.31675 C 658.11648 380.32675 662.38648 387.31675 661.38648 387.31675 C 660.38648 387.31675 653.27648 366.66343 660.38648 365.31675 C 665.5437000000001 364.33994 666.69648 365.19675 671.51648 363.10675000000003 L 670.83648 363.74675 C 674.0264800000001 366.06675 678.46648 364.63675 682.10648 363.12675 C 685.75648 361.62675 690.1864800000001 360.19675 693.38648 362.50675 C 695.39648 363.95675 696.24648 366.47675000000004 697.49648 368.61675 C 698.74648 370.76675 701.05648 372.79675000000003 703.4364800000001 372.13675 C 705.34648 371.60675000000003 706.4464800000001 369.4667 706.4364800000001 367.48675000000003 C 706.4264800000001 365.50680000000006 703.8482300000001 363.62320000000005 704.71648 361.84675000000004 C 707.28967 356.58231000000006 704.97564 352.994 699.36648 350.51675000000006 Q 696.3064800000001 350.0517500000001 693.24648 349.56675000000007 C 694.315462865944 348.08609817764636 695.6114012762284 346.7834100881418 697.08648 345.70675000000006 C 696.4633489905158 344.10888778912346 695.3856011952387 342.7286752900105 693.98648 341.73675000000003 C 692.35648 340.76675 690.33648 340.83675000000005 688.4464800000001 340.93675 Q 682.11648 341.26675 675.7964800000001 341.59675000000004 C 672.6764800000001 341.75675000000007 669.4464800000001 341.94675000000007 666.6565300000001 343.37675 C 663.1765300000001 345.16675000000004 660.8965300000001 348.65675 659.2364800000001 352.20675 C 655.51648 360.18675 656.10645 366.60679 657.38648 375.31675 Z" stroke-linecap="round" />
</g>
<g transform="matrix(1 0 0 1 614.46 888.93)"  >
<path style="stroke: none; stroke-width: 1; stroke-dasharray: none; stroke-linecap: butt; stroke-dashoffset: 0; stroke-linejoin: miter; stroke-miterlimit: 4; fill: rgb(202,202,202); fill-rule: nonzero; opacity: 1;" vector-effect="non-scaling-stroke"  transform=" translate(-674.85, -798.94)" d="M 561.476 799.97328 L 788.226 800.28062 C 788.8835971673523 800.28062 789.4166849999999 799.7475321673522 789.4166849999999 799.089935 C 789.4166849999999 798.4323378326478 788.8835971673523 797.89925 788.226 797.89925 L 561.476 797.5919200000001 C 560.8184056645578 797.5919200996827 560.2853201804915 798.1250056645579 560.2853201804915 798.7826 C 560.2853201804915 799.4401943354422 560.8184056645578 799.9732799003174 561.476 799.97328 Z" stroke-linecap="round" />
</g>
<g transform="matrix(0.14 -0.99 0.99 0.14 411.59 785.09)"  >
<ellipse style="stroke: none; stroke-width: 1; stroke-dasharray: none; stroke-linecap: butt; stroke-dashoffset: 0; stroke-linejoin: miter; stroke-miterlimit: 4; fill: rgb(101,101,101); fill-rule: nonzero; opacity: 1;" vector-effect="non-scaling-stroke"  cx="0" cy="0" rx="5.25681" ry="7.55666" />
</g>
<g transform="matrix(0.14 -0.99 0.99 0.14 460.77 780.29)"  >
<ellipse style="stroke: none; stroke-width: 1; stroke-dasharray: none; stroke-linecap: butt; stroke-dashoffset: 0; stroke-linejoin: miter; stroke-miterlimit: 4; fill: rgb(63,61,86); fill-rule: nonzero; opacity: 1;" vector-effect="non-scaling-stroke"  cx="0" cy="0" rx="5.2568" ry="7.55666" />
</g>
<g transform="matrix(0.14 -0.99 0.99 0.14 398.13 745.28)"  >
<ellipse style="stroke: none; stroke-width: 1; stroke-dasharray: none; stroke-linecap: butt; stroke-dashoffset: 0; stroke-linejoin: miter; stroke-miterlimit: 4; fill: rgb(255,101,132); fill-rule: nonzero; opacity: 1;" vector-effect="non-scaling-stroke"  cx="0" cy="0" rx="5.25681" ry="7.55666" />
</g>
<g transform="matrix(0.01 -1 1 0.01 373.67 699.67)"  >
<ellipse style="stroke: none; stroke-width: 1; stroke-dasharray: none; stroke-linecap: butt; stroke-dashoffset: 0; stroke-linejoin: miter; stroke-miterlimit: 4; fill: rgb(63,61,86); fill-rule: nonzero; opacity: 1;" vector-effect="non-scaling-stroke"  cx="0" cy="0" rx="4.77581" ry="3.3223" />
</g>
<g transform="matrix(0.01 -1 1 0.01 406.26 764.98)"  >
<ellipse style="stroke: none; stroke-width: 1; stroke-dasharray: none; stroke-linecap: butt; stroke-dashoffset: 0; stroke-linejoin: miter; stroke-miterlimit: 4; fill: rgb(255,101,132); fill-rule: nonzero; opacity: 1;" vector-effect="non-scaling-stroke"  cx="0" cy="0" rx="4.77581" ry="3.3223" />
</g>
<g transform="matrix(0.01 -1 1 0.01 439.33 786.91)"  >
<ellipse style="stroke: none; stroke-width: 1; stroke-dasharray: none; stroke-linecap: butt; stroke-dashoffset: 0; stroke-linejoin: miter; stroke-miterlimit: 4; fill: rgb(63,61,86); fill-rule: nonzero; opacity: 1;" vector-effect="non-scaling-stroke"  cx="0" cy="0" rx="4.77581" ry="3.3223" />
</g>
<g transform="matrix(0.14 -0.99 0.99 0.14 838.77 626.29)"  >
<ellipse style="stroke: none; stroke-width: 1; stroke-dasharray: none; stroke-linecap: butt; stroke-dashoffset: 0; stroke-linejoin: miter; stroke-miterlimit: 4; fill: rgb(63,61,86); fill-rule: nonzero; opacity: 1;" vector-effect="non-scaling-stroke"  cx="0" cy="0" rx="5.2568" ry="7.55666" />
</g>
<g transform="matrix(0.14 -0.99 0.99 0.14 776.13 591.28)"  >
<ellipse style="stroke: none; stroke-width: 1; stroke-dasharray: none; stroke-linecap: butt; stroke-dashoffset: 0; stroke-linejoin: miter; stroke-miterlimit: 4; fill: rgb(255,101,132); fill-rule: nonzero; opacity: 1;" vector-effect="non-scaling-stroke"  cx="0" cy="0" rx="5.25681" ry="7.55666" />
</g>
<g transform="matrix(0.01 -1 1 0.01 751.67 545.67)"  >
<ellipse style="stroke: none; stroke-width: 1; stroke-dasharray: none; stroke-linecap: butt; stroke-dashoffset: 0; stroke-linejoin: miter; stroke-miterlimit: 4; fill: rgb(63,61,86); fill-rule: nonzero; opacity: 1;" vector-effect="non-scaling-stroke"  cx="0" cy="0" rx="4.77581" ry="3.3223" />
</g>
<g transform="matrix(0.01 -1 1 0.01 784.26 610.98)"  >
<ellipse style="stroke: none; stroke-width: 1; stroke-dasharray: none; stroke-linecap: butt; stroke-dashoffset: 0; stroke-linejoin: miter; stroke-miterlimit: 4; fill: rgb(255,101,132); fill-rule: nonzero; opacity: 1;" vector-effect="non-scaling-stroke"  cx="0" cy="0" rx="4.77581" ry="3.3223" />
</g>
<g transform="matrix(0.01 -1 1 0.01 817.33 632.91)"  >
<ellipse style="stroke: none; stroke-width: 1; stroke-dasharray: none; stroke-linecap: butt; stroke-dashoffset: 0; stroke-linejoin: miter; stroke-miterlimit: 4; fill: rgb(63,61,86); fill-rule: nonzero; opacity: 1;" vector-effect="non-scaling-stroke"  cx="0" cy="0" rx="4.77581" ry="3.3223" />
</g>
<g transform="matrix(0.14 -0.99 0.99 0.14 606.59 346.09)"  >
<ellipse style="stroke: none; stroke-width: 1; stroke-dasharray: none; stroke-linecap: butt; stroke-dashoffset: 0; stroke-linejoin: miter; stroke-miterlimit: 4; fill: rgb(255,255,255); fill-rule: nonzero; opacity: 1;" vector-effect="non-scaling-stroke"  cx="0" cy="0" rx="5.25681" ry="7.55666" />
</g>
<g transform="matrix(0.14 -0.99 0.99 0.14 655.77 341.29)"  >
<ellipse style="stroke: none; stroke-width: 1; stroke-dasharray: none; stroke-linecap: butt; stroke-dashoffset: 0; stroke-linejoin: miter; stroke-miterlimit: 4; fill: rgb(63,61,86); fill-rule: nonzero; opacity: 1;" vector-effect="non-scaling-stroke"  cx="0" cy="0" rx="5.2568" ry="7.55666" />
</g>
<g transform="matrix(0.14 -0.99 0.99 0.14 593.13 306.28)"  >
<ellipse style="stroke: none; stroke-width: 1; stroke-dasharray: none; stroke-linecap: butt; stroke-dashoffset: 0; stroke-linejoin: miter; stroke-miterlimit: 4; fill: rgb(255,101,132); fill-rule: nonzero; opacity: 1;" vector-effect="non-scaling-stroke"  cx="0" cy="0" rx="5.25681" ry="7.55666" />
</g>
<g transform="matrix(0.01 -1 1 0.01 575.92 291.04)"  >
<ellipse style="stroke: none; stroke-width: 1; stroke-dasharray: none; stroke-linecap: butt; stroke-dashoffset: 0; stroke-linejoin: miter; stroke-miterlimit: 4; fill: rgb(230,230,230); fill-rule: nonzero; opacity: 1;" vector-effect="non-scaling-stroke"  cx="0" cy="0" rx="4.77581" ry="3.3223" />
</g>
<g transform="matrix(0.01 -1 1 0.01 568.67 260.67)"  >
<ellipse style="stroke: none; stroke-width: 1; stroke-dasharray: none; stroke-linecap: butt; stroke-dashoffset: 0; stroke-linejoin: miter; stroke-miterlimit: 4; fill: rgb(63,61,86); fill-rule: nonzero; opacity: 1;" vector-effect="non-scaling-stroke"  cx="0" cy="0" rx="4.77581" ry="3.3223" />
</g>
<g transform="matrix(0.01 -1 1 0.01 625.02 314.12)"  >
<ellipse style="stroke: none; stroke-width: 1; stroke-dasharray: none; stroke-linecap: butt; stroke-dashoffset: 0; stroke-linejoin: miter; stroke-miterlimit: 4; fill: rgb(230,230,230); fill-rule: nonzero; opacity: 1;" vector-effect="non-scaling-stroke"  cx="0" cy="0" rx="4.77581" ry="3.3223" />
</g>
<g transform="matrix(0.01 -1 1 0.01 601.26 325.98)"  >
<ellipse style="stroke: none; stroke-width: 1; stroke-dasharray: none; stroke-linecap: butt; stroke-dashoffset: 0; stroke-linejoin: miter; stroke-miterlimit: 4; fill: rgb(255,101,132); fill-rule: nonzero; opacity: 1;" vector-effect="non-scaling-stroke"  cx="0" cy="0" rx="4.77581" ry="3.3223" />
</g>
<g transform="matrix(0.01 -1 1 0.01 634.33 347.91)"  >
<ellipse style="stroke: none; stroke-width: 1; stroke-dasharray: none; stroke-linecap: butt; stroke-dashoffset: 0; stroke-linejoin: miter; stroke-miterlimit: 4; fill: rgb(63,61,86); fill-rule: nonzero; opacity: 1;" vector-effect="non-scaling-stroke"  cx="0" cy="0" rx="4.77581" ry="3.3223" />
</g>
</svg>